<svg xmlns="http://www.w3.org/2000/svg" viewBox="0 0 200 200">
  <rect width="200" height="200" fill="#000" rx="20"/>
  <path d="M 100,55 Q 138,55 148,88 Q 150,95 144,98 Q 138,100 134,94 Q 126,72 100,72 Q 90,72 90,63 Q 90,55 100,55 Z" fill="#2098C9"/>
  <path d="M 145,100 Q 145,138 112,148 Q 105,150 102,144 Q 100,138 106,134 Q 128,126 128,100 Q 128,90 137,90 Q 145,90 145,100 Z" fill="#A3CD39"/>
  <path d="M 100,145 Q 62,145 52,112 Q 50,105 56,102 Q 62,100 66,106 Q 74,128 100,128 Q 110,128 110,137 Q 110,145 100,145 Z" fill="#2098C9"/>
  <path d="M 55,100 Q 55,62 88,52 Q 95,50 98,56 Q 100,62 94,66 Q 72,74 72,100 Q 72,110 63,110 Q 55,110 55,100 Z" fill="#8E3A8A"/>
</svg>
